<svg width="224" height="224" viewBox="0 0 224 224" fill="none" xmlns="http://www.w3.org/2000/svg">
<mask id="mask0_8496_15170" style="mask-type:alpha" maskUnits="userSpaceOnUse" x="0" y="0" width="224" height="224">
<path d="M208.294 164.089C208.134 143.5 159.612 131.848 113.964 131.369C65.6014 131.369 15.324 143.659 15.324 164.089V164.249C15.4836 184.839 64.0053 196.49 109.654 196.969C158.016 196.969 208.134 184.679 208.294 164.089ZM109.654 189.468C58.5786 188.829 22.9853 175.741 22.8257 164.249C22.9853 152.278 61.9304 138.871 113.964 138.871C165.039 139.509 200.632 152.597 200.792 164.089C200.632 176.06 161.687 189.468 109.654 189.468Z" fill="url(#paint0_radial_8496_15170)"/>
<path d="M112.047 223.456C50.2779 223.616 0.159994 173.817 0.00038261 112.048C-0.159228 50.2783 49.6394 0.320054 111.249 0.000831702C152.589 -0.158779 190.576 22.6656 210.048 59.0569C239.257 113.325 218.667 181 164.4 210.209C148.439 218.987 130.403 223.456 112.047 223.456ZM111.728 7.82177C54.1085 7.82177 7.66171 54.5878 7.82132 112.048C7.98093 169.508 54.5874 215.955 112.047 215.955C169.507 215.955 215.954 169.189 215.954 111.729C215.954 94.6502 211.645 77.7314 203.664 62.728C185.468 28.7308 150.035 7.66216 111.728 7.82177Z" fill="white"/>
<path d="M140.618 208.453C140.459 199.993 128.169 193.449 111.888 193.449C95.6081 193.449 83.1584 199.834 83.1584 208.453V208.612C83.3181 217.231 95.6081 223.616 111.888 223.616C128.169 223.616 140.618 217.231 140.618 208.453ZM111.888 216.433C98.9599 216.433 90.8198 211.804 90.6602 208.453C90.5006 205.101 98.9599 200.472 111.888 200.472C124.817 200.472 132.957 205.101 133.117 208.453C133.276 211.804 124.657 216.433 111.888 216.433Z" fill="url(#paint1_radial_8496_15170)"/>
<path d="M223.455 111.887C223.136 89.861 167.113 77.0921 114.282 76.6133C58.4176 76.6133 0.319222 89.861 0 111.887C0 111.887 0 111.887 0 112.047C0.478833 134.073 56.5023 146.683 109.334 147.321C165.197 147.321 223.136 134.073 223.455 111.887ZM109.334 139.66C49.4794 139.021 7.98055 124.497 7.66133 111.887C7.98055 98.7992 53.4697 84.115 114.282 84.115C173.976 84.7534 215.634 99.278 215.954 111.887C215.794 124.975 170.145 139.66 109.334 139.66Z" fill="url(#paint2_radial_8496_15170)"/>
<path d="M113.964 26.4922C65.4418 26.4922 15.324 38.7822 15.324 59.3721C15.324 79.9619 63.8457 91.7731 109.494 92.2519C158.016 92.2519 208.134 79.9619 208.134 59.3721C208.134 38.7822 159.772 26.971 113.964 26.4922ZM109.654 84.5906C58.5786 84.1118 22.9853 70.8641 22.9853 59.3721C22.9853 47.4012 61.9304 33.9939 113.964 33.9939C165.039 34.6324 200.632 47.7205 200.632 59.3721C200.632 71.3429 161.687 84.5906 109.654 84.5906Z" fill="url(#paint3_radial_8496_15170)"/>
<path d="M111.409 0.160156C103.269 0.160156 84.4346 1.43704 84.4346 12.7694C84.4346 24.1018 103.269 25.3787 111.409 25.3787C119.549 25.3787 138.383 24.1018 138.383 12.7694C138.383 1.43704 119.549 0.160156 111.409 0.160156ZM111.409 7.82148C122.901 7.82148 130.722 10.3753 130.722 12.7694C130.722 15.1636 122.741 17.7174 111.409 17.7174C100.076 17.7174 92.0959 15.004 92.0959 12.7694C92.0959 10.5349 100.076 7.82148 111.409 7.82148Z" fill="white"/>
<path d="M158.654 179.573C158.176 179.573 157.697 179.573 157.218 179.732L115.24 107.109L76.9335 41.0302C80.2853 36.8803 79.6469 30.8151 75.497 27.6229C71.3471 24.4307 65.2819 24.9095 62.0897 29.0594C58.8975 33.2093 59.3763 39.2745 63.5262 42.4667C65.2819 43.9032 67.5165 44.5417 69.751 44.5417C70.2299 44.5417 70.5491 44.5417 71.0279 44.3821L109.335 110.461L126.573 140.308L151.153 183.084C147.801 187.234 148.439 193.14 152.43 196.491C156.42 199.843 162.485 199.205 165.837 195.214C169.189 191.065 168.55 185.159 164.56 181.807C162.964 180.371 160.889 179.573 158.654 179.573Z" fill="white"/>
</mask>
<g mask="url(#mask0_8496_15170)">
<rect x="65.3911" y="-62.5918" width="255.378" height="256.974" transform="rotate(30 65.3911 -62.5918)" fill="url(#paint4_linear_8496_15170)"/>
</g>
<defs>
<radialGradient id="paint0_radial_8496_15170" cx="0" cy="0" r="1" gradientUnits="userSpaceOnUse" gradientTransform="translate(149.081 114.401) rotate(12.3391) scale(91.6441 60.185)">
<stop offset="0.1595" stop-color="white" stop-opacity="0"/>
<stop offset="1" stop-color="white"/>
</radialGradient>
<radialGradient id="paint1_radial_8496_15170" cx="0" cy="0" r="1" gradientUnits="userSpaceOnUse" gradientTransform="translate(112.302 181.134) scale(54.7779 33.5375)">
<stop stop-color="white" stop-opacity="0"/>
<stop offset="1" stop-color="white"/>
</radialGradient>
<radialGradient id="paint2_radial_8496_15170" cx="0" cy="0" r="1" gradientUnits="userSpaceOnUse" gradientTransform="translate(112.83 50.4052) scale(94.2893 72.1601)">
<stop offset="0.2" stop-color="white" stop-opacity="0"/>
<stop offset="1" stop-color="white"/>
</radialGradient>
<radialGradient id="paint3_radial_8496_15170" cx="0" cy="0" r="1" gradientUnits="userSpaceOnUse" gradientTransform="translate(54.539 2.867) rotate(65.799) scale(63.3556 79.5032)">
<stop offset="0.3406" stop-color="white" stop-opacity="0"/>
<stop offset="0.8886" stop-color="white"/>
</radialGradient>
<linearGradient id="paint4_linear_8496_15170" x1="193.08" y1="-62.5918" x2="193.08" y2="194.382" gradientUnits="userSpaceOnUse">
<stop stop-color="#BE95FF"/>
<stop offset="0.473958" stop-color="#9F8CFF"/>
<stop offset="0.838542" stop-color="#8685FF"/>
<stop offset="1" stop-color="#0F62FE"/>
</linearGradient>
</defs>
</svg>
